<?xml version="1.0" encoding="utf-8" standalone="no"?>
<!DOCTYPE svg PUBLIC "-//W3C//DTD SVG 1.1//EN" "http://www.w3.org/Graphics/SVG/1.1/DTD/svg11.dtd">
<svg version="1.1" width="48pt" height="48pt" viewBox="0 0 48 48" xmlns="http://www.w3.org/2000/svg">
  <defs />
  <g id="Layer_01">
    <path d="M20.81044,19.559486 C20.81044,21.950815 20.81044,24.342146 20.81044,26.733475 C21.21044,26.733475 21.610441,26.733475 22.01044,26.733475 C22.01044,23.942144 22.01044,21.150814 22.01044,18.359486 C17.340294,18.359486 12.670149,18.359486 8.000003,18.359486 C8.000003,17.57299 8.000003,16.786497 8.000003,16.000006 C7.6000023,16.000006 7.200002,16.000006 6.8000026,16.000006 C6.8000026,17.186497 6.8000026,18.372992 6.8000026,19.559486 C11.470149,19.559486 16.140295,19.559486 20.81044,19.559486 z" stroke="#000000" stroke-width="0" fill="#C80000" fill-opacity="1" />
    <path d="M24.41044,19.559486 C30.809378,19.559486 37.208317,19.559486 43.607254,19.559486 C43.607254,16.768154 43.607254,13.976825 43.607254,11.185494 C43.207253,11.185494 42.807255,11.185494 42.407253,11.185494 C42.407253,13.576824 42.407253,15.968156 42.407253,18.359486 C36.008316,18.359486 29.609377,18.359486 23.21044,18.359486 C23.21044,21.150814 23.21044,23.942144 23.21044,26.733475 C23.61044,26.733475 24.01044,26.733475 24.41044,26.733475 C24.41044,24.342146 24.41044,21.950815 24.41044,19.559486 z" stroke="#000000" stroke-width="0" fill="#C80000" fill-opacity="1" />
    <path d="M38.014503,9.985495 C41.343002,9.985495 44.6715,9.985495 48,9.985495 C48,6.6569967 48,3.3284984 48,2.0463632E-14 C44.6715,2.0463632E-14 41.343002,2.0463632E-14 38.014503,2.0463632E-14 C38.014503,3.3284984 38.014503,6.6569967 38.014503,9.985495 z" stroke="#000000" stroke-width="0" fill="#C80000" fill-opacity="1" />
    <path d="M13.777178,48 C20.466019,48 27.154861,48 33.843704,48 C33.843704,41.311157 33.843704,34.62232 33.843704,27.933475 C27.154861,27.933475 20.466019,27.933475 13.777178,27.933475 C13.777178,34.62232 13.777178,41.311157 13.777178,48 z" stroke="#000000" stroke-width="0" fill="#C80000" fill-opacity="1" />
    <path d="M0,14.800005 C4.933335,14.800005 9.86667,14.800005 14.800005,14.800005 C14.800005,9.86667 14.800005,4.933335 14.800005,2.0463632E-14 C9.86667,2.0463632E-14 4.933335,2.0463632E-14 0,2.0463632E-14 C0,4.933335 0,9.86667 0,14.800005 z" stroke="#000000" stroke-width="0" fill="#C80000" fill-opacity="1" />
    <path d="M0,14.800005 L0,2.0463632E-14 L14.800005,2.0463632E-14 L14.800005,14.800005 z" stroke="#C80000" stroke-width="0.24" stroke-linecap="round" stroke-linejoin="round" fill="none" />
    <path d="M38.014503,9.985495 L38.014503,2.0463632E-14 L48,2.0463632E-14 L48,9.985495 z" stroke="#C80000" stroke-width="0.24" stroke-linecap="round" stroke-linejoin="round" fill="none" />
    <path d="M13.777178,48 L13.777178,27.933475 L33.843704,27.933475 L33.843704,48 z" stroke="#C80000" stroke-width="0.24" stroke-linecap="round" stroke-linejoin="round" fill="none" />
  </g>
</svg>