<?xml version="1.0" encoding="utf-8" standalone="no"?>
<!DOCTYPE svg PUBLIC "-//W3C//DTD SVG 1.1//EN" "http://www.w3.org/Graphics/SVG/1.1/DTD/svg11.dtd">
<svg version="1.1" width="48pt" height="48pt" viewBox="0 0 48 48" xmlns="http://www.w3.org/2000/svg">
  <defs />
  <g id="Layer_01">
    <path d="M36.766735,26.733475 C37.56674,26.733475 38.366737,26.733475 39.166737,26.733475 C39.166737,21.550814 39.166737,16.368155 39.166737,11.185494 C38.366737,11.185494 37.56674,11.185494 36.766735,11.185494 C36.766735,16.368155 36.766735,21.550814 36.766735,26.733475 z" stroke="#000000" stroke-width="0" fill="#C80000" fill-opacity="1" />
    <path d="M26.733475,39.166737 C26.733475,38.366737 26.733475,37.56674 26.733475,36.766735 C20.688984,36.766735 14.644493,36.766735 8.600002,36.766735 C8.600002,29.844492 8.600002,22.922249 8.600002,16.000006 C7.8000016,16.000006 7.000002,16.000006 6.2000027,16.000006 C6.2000027,23.72225 6.2000027,31.444494 6.2000027,39.166737 C13.044493,39.166737 19.888985,39.166737 26.733475,39.166737 z" stroke="#000000" stroke-width="0" fill="#C80000" fill-opacity="1" />
    <path d="M-6.82121E-15,14.800005 C4.933335,14.800005 9.86667,14.800005 14.800005,14.800005 C14.800005,9.86667 14.800005,4.933335 14.800005,0 C9.86667,0 4.933335,0 -6.82121E-15,0 C-6.82121E-15,4.933335 -6.82121E-15,9.86667 -6.82121E-15,14.800005 z" stroke="#000000" stroke-width="0" fill="#C80000" fill-opacity="1" />
    <path d="M27.933475,48 C34.62232,48 41.311157,48 48,48 C48,41.311157 48,34.62232 48,27.933475 C41.311157,27.933475 34.62232,27.933475 27.933475,27.933475 C27.933475,34.62232 27.933475,41.311157 27.933475,48 z" stroke="#000000" stroke-width="0" fill="#C80000" fill-opacity="1" />
    <path d="M32.97399,9.985495 C36.302486,9.985495 39.630985,9.985495 42.959484,9.985495 C42.959484,6.6569967 42.959484,3.3284984 42.959484,0 C39.630985,0 36.302486,0 32.97399,0 C32.97399,3.3284984 32.97399,6.6569967 32.97399,9.985495 z" stroke="#000000" stroke-width="0" fill="#C80000" fill-opacity="1" />
  </g>
</svg>